<svg xmlns="http://www.w3.org/2000/svg" x="0px" y="0px"
width="100" height="100"
viewBox="0 0 226 226"
style=" fill:#000000;"><g fill="none" fill-rule="nonzero" stroke="none" stroke-width="1" stroke-linecap="butt" stroke-linejoin="miter" stroke-miterlimit="10" stroke-dasharray="" stroke-dashoffset="0" font-family="none" font-weight="none" font-size="none" text-anchor="none" style="mix-blend-mode: normal"><path d="M0,226v-226h226v226z" fill="none"></path><g fill="#95a5a6"><path d="M37.66667,18.83333v18.83333h-9.41667c-5.198,0 -9.41667,4.21867 -9.41667,9.41667v9.41667c0,5.198 4.21867,9.41667 9.41667,9.41667h37.66667c5.198,0 9.41667,-4.21867 9.41667,-9.41667v-9.41667c0,-5.198 -4.21867,-9.41667 -9.41667,-9.41667h-9.41667v-18.83333zM103.58333,18.83333v122.41667h-9.41667c-5.198,0 -9.41667,4.21867 -9.41667,9.41667v9.41667c0,5.198 4.21867,9.41667 9.41667,9.41667h37.66667c5.198,0 9.41667,-4.21867 9.41667,-9.41667v-9.41667c0,-5.198 -4.21867,-9.41667 -9.41667,-9.41667h-9.41667v-122.41667zM169.5,18.83333v65.91667h-9.41667c-5.198,0 -9.41667,4.21867 -9.41667,9.41667v9.41667c0,5.198 4.21867,9.41667 9.41667,9.41667h37.66667c5.198,0 9.41667,-4.21867 9.41667,-9.41667v-9.41667c0,-5.198 -4.21867,-9.41667 -9.41667,-9.41667h-9.41667v-65.91667zM37.66667,84.75v122.41667h18.83333v-122.41667zM169.5,131.83333v75.33333h18.83333v-75.33333zM103.58333,188.33333v18.83333h18.83333v-18.83333z"></path></g></g></svg>