<svg xmlns="http://www.w3.org/2000/svg" x="0px" y="0px"
width="100" height="100"
viewBox="0 0 226 226"
style=" fill:#000000;"><g fill="none" fill-rule="nonzero" stroke="none" stroke-width="1" stroke-linecap="butt" stroke-linejoin="miter" stroke-miterlimit="10" stroke-dasharray="" stroke-dashoffset="0" font-family="none" font-weight="none" font-size="none" text-anchor="none" style="mix-blend-mode: normal"><path d="M0,226v-226h226v226z" fill="none"></path><g fill="#95a5a6"><path d="M7.76875,54.24c-2.48953,0.35312 -4.2375,2.66609 -3.88437,5.15563c0.35313,2.48953 2.66609,4.2375 5.15562,3.88437h54.24c1.62437,0.01766 3.14281,-0.82984 3.97266,-2.24234c0.81219,-1.4125 0.81219,-3.14281 0,-4.55531c-0.82984,-1.4125 -2.34828,-2.26 -3.97266,-2.24234h-54.24c-0.14125,0 -0.2825,0 -0.42375,0c-0.14125,0 -0.2825,0 -0.42375,0c-0.14125,0 -0.2825,0 -0.42375,0zM7.76875,76.84c-2.48953,0.35313 -4.2375,2.66609 -3.88437,5.15563c0.35313,2.48953 2.66609,4.2375 5.15562,3.88438h54.24c1.62437,0.01766 3.14281,-0.82984 3.97266,-2.24234c0.81219,-1.4125 0.81219,-3.14281 0,-4.55531c-0.82984,-1.4125 -2.34828,-2.26 -3.97266,-2.24234h-54.24c-0.14125,0 -0.2825,0 -0.42375,0c-0.14125,0 -0.2825,0 -0.42375,0c-0.14125,0 -0.2825,0 -0.42375,0zM7.76875,99.44c-2.48953,0.35312 -4.2375,2.66609 -3.88437,5.15562c0.35313,2.48953 2.66609,4.2375 5.15562,3.88438h54.24c1.62437,0.01766 3.14281,-0.82984 3.97266,-2.24234c0.81219,-1.4125 0.81219,-3.14281 0,-4.55531c-0.82984,-1.4125 -2.34828,-2.26 -3.97266,-2.24234h-54.24c-0.14125,0 -0.2825,0 -0.42375,0c-0.14125,0 -0.2825,0 -0.42375,0c-0.14125,0 -0.2825,0 -0.42375,0zM161.44875,99.44c-2.48953,0.35312 -4.2375,2.66609 -3.88438,5.15562c0.35313,2.48953 2.66609,4.2375 5.15562,3.88438h54.24c1.62437,0.01766 3.14281,-0.82984 3.97266,-2.24234c0.81219,-1.4125 0.81219,-3.14281 0,-4.55531c-0.82984,-1.4125 -2.34828,-2.26 -3.97266,-2.24234h-54.24c-0.14125,0 -0.2825,0 -0.42375,0c-0.14125,0 -0.2825,0 -0.42375,0c-0.14125,0 -0.2825,0 -0.42375,0zM7.76875,122.04c-2.48953,0.35312 -4.2375,2.66609 -3.88437,5.15563c0.35313,2.48953 2.66609,4.2375 5.15562,3.88437h54.24c1.62437,0.01766 3.14281,-0.82984 3.97266,-2.24234c0.81219,-1.4125 0.81219,-3.14281 0,-4.55531c-0.82984,-1.4125 -2.34828,-2.26 -3.97266,-2.24234h-54.24c-0.14125,0 -0.2825,0 -0.42375,0c-0.14125,0 -0.2825,0 -0.42375,0c-0.14125,0 -0.2825,0 -0.42375,0zM161.44875,122.04c-2.48953,0.35312 -4.2375,2.66609 -3.88438,5.15563c0.35313,2.48953 2.66609,4.2375 5.15562,3.88437h54.24c1.62437,0.01766 3.14281,-0.82984 3.97266,-2.24234c0.81219,-1.4125 0.81219,-3.14281 0,-4.55531c-0.82984,-1.4125 -2.34828,-2.26 -3.97266,-2.24234h-54.24c-0.14125,0 -0.2825,0 -0.42375,0c-0.14125,0 -0.2825,0 -0.42375,0c-0.14125,0 -0.2825,0 -0.42375,0zM7.76875,144.64c-2.48953,0.35313 -4.2375,2.66609 -3.88437,5.15562c0.35313,2.48953 2.66609,4.2375 5.15562,3.88438h54.24c1.62437,0.01766 3.14281,-0.82984 3.97266,-2.24234c0.81219,-1.4125 0.81219,-3.14281 0,-4.55531c-0.82984,-1.4125 -2.34828,-2.26 -3.97266,-2.24234h-54.24c-0.14125,0 -0.2825,0 -0.42375,0c-0.14125,0 -0.2825,0 -0.42375,0c-0.14125,0 -0.2825,0 -0.42375,0zM84.60875,144.64c-2.48953,0.35313 -4.2375,2.66609 -3.88437,5.15562c0.35312,2.48953 2.66609,4.2375 5.15563,3.88438h54.24c1.62438,0.01766 3.14281,-0.82984 3.97266,-2.24234c0.81219,-1.4125 0.81219,-3.14281 0,-4.55531c-0.82984,-1.4125 -2.34828,-2.26 -3.97266,-2.24234h-54.24c-0.14125,0 -0.2825,0 -0.42375,0c-0.14125,0 -0.2825,0 -0.42375,0c-0.14125,0 -0.2825,0 -0.42375,0zM161.44875,144.64c-2.48953,0.35313 -4.2375,2.66609 -3.88438,5.15562c0.35313,2.48953 2.66609,4.2375 5.15562,3.88438h54.24c1.62437,0.01766 3.14281,-0.82984 3.97266,-2.24234c0.81219,-1.4125 0.81219,-3.14281 0,-4.55531c-0.82984,-1.4125 -2.34828,-2.26 -3.97266,-2.24234h-54.24c-0.14125,0 -0.2825,0 -0.42375,0c-0.14125,0 -0.2825,0 -0.42375,0c-0.14125,0 -0.2825,0 -0.42375,0zM7.76875,167.24c-2.48953,0.35313 -4.2375,2.66609 -3.88437,5.15563c0.35313,2.48953 2.66609,4.2375 5.15562,3.88437h54.24c1.62437,0.01766 3.14281,-0.82984 3.97266,-2.24234c0.81219,-1.4125 0.81219,-3.14281 0,-4.55531c-0.82984,-1.4125 -2.34828,-2.26 -3.97266,-2.24234h-54.24c-0.14125,0 -0.2825,0 -0.42375,0c-0.14125,0 -0.2825,0 -0.42375,0c-0.14125,0 -0.2825,0 -0.42375,0zM84.60875,167.24c-2.48953,0.35313 -4.2375,2.66609 -3.88437,5.15563c0.35312,2.48953 2.66609,4.2375 5.15563,3.88437h54.24c1.62438,0.01766 3.14281,-0.82984 3.97266,-2.24234c0.81219,-1.4125 0.81219,-3.14281 0,-4.55531c-0.82984,-1.4125 -2.34828,-2.26 -3.97266,-2.24234h-54.24c-0.14125,0 -0.2825,0 -0.42375,0c-0.14125,0 -0.2825,0 -0.42375,0c-0.14125,0 -0.2825,0 -0.42375,0zM161.44875,167.24c-2.48953,0.35313 -4.2375,2.66609 -3.88438,5.15563c0.35313,2.48953 2.66609,4.2375 5.15562,3.88437h54.24c1.62437,0.01766 3.14281,-0.82984 3.97266,-2.24234c0.81219,-1.4125 0.81219,-3.14281 0,-4.55531c-0.82984,-1.4125 -2.34828,-2.26 -3.97266,-2.24234h-54.24c-0.14125,0 -0.2825,0 -0.42375,0c-0.14125,0 -0.2825,0 -0.42375,0c-0.14125,0 -0.2825,0 -0.42375,0zM7.76875,189.84c-2.48953,0.35313 -4.2375,2.66609 -3.88437,5.15563c0.35313,2.48953 2.66609,4.2375 5.15562,3.88438h54.24c1.62437,0.01766 3.14281,-0.82984 3.97266,-2.24234c0.81219,-1.4125 0.81219,-3.14281 0,-4.55531c-0.82984,-1.4125 -2.34828,-2.26 -3.97266,-2.24234h-54.24c-0.14125,0 -0.2825,0 -0.42375,0c-0.14125,0 -0.2825,0 -0.42375,0c-0.14125,0 -0.2825,0 -0.42375,0zM84.60875,189.84c-2.48953,0.35313 -4.2375,2.66609 -3.88437,5.15563c0.35312,2.48953 2.66609,4.2375 5.15563,3.88438h54.24c1.62438,0.01766 3.14281,-0.82984 3.97266,-2.24234c0.81219,-1.4125 0.81219,-3.14281 0,-4.55531c-0.82984,-1.4125 -2.34828,-2.26 -3.97266,-2.24234h-54.24c-0.14125,0 -0.2825,0 -0.42375,0c-0.14125,0 -0.2825,0 -0.42375,0c-0.14125,0 -0.2825,0 -0.42375,0zM161.44875,189.84c-2.48953,0.35313 -4.2375,2.66609 -3.88438,5.15563c0.35313,2.48953 2.66609,4.2375 5.15562,3.88438h54.24c1.62437,0.01766 3.14281,-0.82984 3.97266,-2.24234c0.81219,-1.4125 0.81219,-3.14281 0,-4.55531c-0.82984,-1.4125 -2.34828,-2.26 -3.97266,-2.24234h-54.24c-0.14125,0 -0.2825,0 -0.42375,0c-0.14125,0 -0.2825,0 -0.42375,0c-0.14125,0 -0.2825,0 -0.42375,0zM7.76875,212.44c-2.48953,0.35313 -4.2375,2.66609 -3.88437,5.15563c0.35313,2.48953 2.66609,4.2375 5.15562,3.88438h54.24c1.62437,0.01766 3.14281,-0.82984 3.97266,-2.24234c0.81219,-1.4125 0.81219,-3.14281 0,-4.55531c-0.82984,-1.4125 -2.34828,-2.26 -3.97266,-2.24234h-54.24c-0.14125,0 -0.2825,0 -0.42375,0c-0.14125,0 -0.2825,0 -0.42375,0c-0.14125,0 -0.2825,0 -0.42375,0zM84.60875,212.44c-2.48953,0.35313 -4.2375,2.66609 -3.88437,5.15563c0.35312,2.48953 2.66609,4.2375 5.15563,3.88438h54.24c1.62438,0.01766 3.14281,-0.82984 3.97266,-2.24234c0.81219,-1.4125 0.81219,-3.14281 0,-4.55531c-0.82984,-1.4125 -2.34828,-2.26 -3.97266,-2.24234h-54.24c-0.14125,0 -0.2825,0 -0.42375,0c-0.14125,0 -0.2825,0 -0.42375,0c-0.14125,0 -0.2825,0 -0.42375,0zM161.44875,212.44c-2.48953,0.35313 -4.2375,2.66609 -3.88438,5.15563c0.35313,2.48953 2.66609,4.2375 5.15562,3.88438h54.24c1.62437,0.01766 3.14281,-0.82984 3.97266,-2.24234c0.81219,-1.4125 0.81219,-3.14281 0,-4.55531c-0.82984,-1.4125 -2.34828,-2.26 -3.97266,-2.24234h-54.24c-0.14125,0 -0.2825,0 -0.42375,0c-0.14125,0 -0.2825,0 -0.42375,0c-0.14125,0 -0.2825,0 -0.42375,0z"></path></g></g></svg>