<svg xmlns="http://www.w3.org/2000/svg" x="0px" y="0px"
width="100" height="100"
viewBox="0 0 226 226"
style=" fill:#000000;"><g fill="none" fill-rule="nonzero" stroke="none" stroke-width="1" stroke-linecap="butt" stroke-linejoin="miter" stroke-miterlimit="10" stroke-dasharray="" stroke-dashoffset="0" font-family="none" font-weight="none" font-size="none" text-anchor="none" style="mix-blend-mode: normal"><path d="M0,226v-226h226v226z" fill="none"></path><g fill="#95a5a6"><path d="M113,22.6c-16.837,0 -32.53894,4.68232 -46.03867,12.69779c-3.89473,-3.17907 -8.80399,-5.16445 -14.22799,-5.16445c-12.48273,0 -22.6,10.11727 -22.6,22.6c0,5.424 1.98539,10.33326 5.16445,14.22799c-8.01547,13.49973 -12.69779,29.20167 -12.69779,46.03867c0,16.837 4.68232,32.53894 12.69779,46.03867c-3.17907,3.89473 -5.16445,8.804 -5.16445,14.228c0,12.48273 10.11727,22.6 22.6,22.6c5.424,0 10.33326,-1.98539 14.22799,-5.16445c13.49973,8.01547 29.20167,12.69779 46.03867,12.69779c16.837,0 32.53894,-4.68232 46.03867,-12.69779c3.89473,3.17907 8.804,5.16445 14.228,5.16445c12.48273,0 22.6,-10.11727 22.6,-22.6c0,-5.424 -1.98539,-10.33326 -5.16445,-14.228c8.01547,-13.49973 12.69779,-29.20167 12.69779,-46.03867c0,-16.837 -4.68232,-32.53894 -12.69779,-46.03867c3.17907,-3.89473 5.16445,-8.80399 5.16445,-14.22799c0,-12.48273 -10.11727,-22.6 -22.6,-22.6c-5.424,0 -10.33326,1.98539 -14.228,5.16445c-13.49973,-8.01547 -29.20167,-12.69779 -46.03867,-12.69779zM52.73333,45.2c4.1584,0 7.53333,3.37493 7.53333,7.53333c0,4.1584 -3.37493,7.53333 -7.53333,7.53333c-4.1584,0 -7.53333,-3.37493 -7.53333,-7.53333c0,-4.1584 3.37493,-7.53333 7.53333,-7.53333zM173.26667,45.2c4.1584,0 7.53333,3.37493 7.53333,7.53333c0,4.1584 -3.37493,7.53333 -7.53333,7.53333c-4.1584,0 -7.53333,-3.37493 -7.53333,-7.53333c0,-4.1584 3.37493,-7.53333 7.53333,-7.53333zM113,52.73333c33.28227,0 60.26667,26.9844 60.26667,60.26667c0,33.28227 -26.9844,60.26667 -60.26667,60.26667c-33.28227,0 -60.26667,-26.9844 -60.26667,-60.26667c0,-33.28227 26.9844,-60.26667 60.26667,-60.26667zM113,90.4c-12.48164,0 -22.6,10.11836 -22.6,22.6c0,12.48164 10.11836,22.6 22.6,22.6c12.48164,0 22.6,-10.11836 22.6,-22.6c0,-12.48164 -10.11836,-22.6 -22.6,-22.6zM52.73333,165.73333c4.1584,0 7.53333,3.37493 7.53333,7.53333c0,4.1584 -3.37493,7.53333 -7.53333,7.53333c-4.1584,0 -7.53333,-3.37493 -7.53333,-7.53333c0,-4.1584 3.37493,-7.53333 7.53333,-7.53333zM173.26667,165.73333c4.1584,0 7.53333,3.37493 7.53333,7.53333c0,4.1584 -3.37493,7.53333 -7.53333,7.53333c-4.1584,0 -7.53333,-3.37493 -7.53333,-7.53333c0,-4.1584 3.37493,-7.53333 7.53333,-7.53333z"></path></g></g></svg>